<?xml version="1.0" standalone="no"?>
<!DOCTYPE svg PUBLIC "-//W3C//DTD SVG 20010904//EN"
 "http://www.w3.org/TR/2001/REC-SVG-20010904/DTD/svg10.dtd">
<svg version="1.0" xmlns="http://www.w3.org/2000/svg"
 width="150.0000pt" height="75.0000pt" viewBox="0 0 5000.000000 1500.000000"
 preserveAspectRatio="xMidYMid meet">

<g transform="translate(0.000000,1507.000000) scale(0.100000,-0.100000)"
fill="#000000" stroke="none">
<path d="M6715 15050 c-951 -64 -1834 -296 -2670 -699 -1148 -554 -2146 -1426
-2850 -2491 -658 -995 -1039 -2075 -1161 -3295 -21 -215 -30 -865 -15 -1102
91 -1403 562 -2691 1393 -3808 374 -502 856 -993 1352 -1376 861 -664 1829
-1113 2895 -1344 85 -19 159 -31 164 -28 5 3 -69 25 -164 49 -428 109 -799
245 -1185 435 -830 409 -1530 977 -2127 1726 -98 124 -268 366 -358 510 -546
878 -848 1809 -920 2842 -15 212 -6 786 15 976 32 288 59 466 106 687 311
1468 1156 2772 2374 3666 632 464 1394 818 2141 997 83 19 166 40 185 45 19 5
62 13 95 19 33 5 101 17 150 26 220 39 355 51 744 65 314 11 587 3 841 -26
1386 -156 2645 -878 3483 -1998 876 -1172 1197 -2662 885 -4100 -148 -683
-454 -1353 -883 -1931 -262 -353 -637 -733 -990 -1001 -409 -311 -873 -564
-1344 -733 -220 -79 -412 -134 -690 -197 -13 -3 -21 -7 -19 -9 2 -3 56 4 119
15 403 68 922 229 1369 426 108 47 459 227 555 284 153 91 171 102 328 206
345 228 611 447 933 768 437 437 741 841 1042 1381 599 1076 856 2407 706
3650 -87 724 -299 1416 -630 2054 -376 725 -912 1380 -1564 1912 -480 392
-1050 726 -1630 957 -550 219 -1156 369 -1705 422 -60 6 -128 13 -150 15 -78
10 -692 13 -820 5z"/>
<path d="M17600 15054 c-85 -17 -193 -50 -256 -78 -251 -116 -434 -337 -506
-608 -21 -80 -22 -104 -25 -690 l-4 -607 -387 -3 c-365 -4 -392 -6 -467 -27
-165 -47 -296 -124 -412 -242 -79 -81 -113 -130 -164 -230 -65 -129 -91 -247
-92 -414 0 -119 4 -154 26 -237 65 -246 222 -449 439 -571 84 -47 222 -93 321
-106 43 -6 227 -11 408 -11 l329 0 0 -3024 c0 -2035 3 -3058 10 -3127 52 -513
299 -961 710 -1288 166 -132 405 -254 618 -315 180 -52 311 -70 502 -70 176 1
245 13 380 68 280 113 491 382 540 690 18 109 8 321 -20 415 -110 381 -418
640 -802 676 l-78 7 0 2984 0 2984 559 0 c338 0 591 4 638 11 108 14 257 67
356 125 106 63 265 221 323 319 93 160 128 287 128 470 0 141 -14 216 -61 334
-105 264 -339 469 -628 552 -79 23 -88 23 -697 27 l-618 3 0 564 c0 341 -4
594 -11 642 -48 355 -298 645 -646 749 -74 22 -111 27 -238 29 -82 2 -161 1
-175 -1z"/>
<path d="M35488 15050 c-297 -54 -538 -236 -668 -504 -93 -192 -84 -7 -87
-1863 l-3 -1642 -98 63 c-482 315 -1043 518 -1664 602 -178 24 -628 30 -828
10 -1222 -117 -2300 -775 -2995 -1831 -368 -558 -595 -1203 -671 -1905 -24
-212 -24 -638 0 -850 98 -900 446 -1692 1042 -2371 127 -145 336 -343 504
-479 1348 -1082 3188 -1170 4658 -223 53 34 84 48 86 40 56 -191 120 -301 251
-432 109 -109 196 -166 322 -210 350 -122 714 -32 971 240 120 127 204 297
231 465 15 91 15 10063 0 10146 -60 343 -315 627 -649 724 -83 24 -315 36
-402 20z m-2663 -5165 c459 -71 869 -287 1223 -644 367 -370 584 -820 658
-1362 24 -169 23 -482 0 -644 -74 -516 -286 -956 -636 -1319 -364 -379 -803
-608 -1285 -671 -145 -19 -416 -19 -556 0 -487 64 -915 286 -1287 665 -338
343 -543 751 -634 1260 -20 109 -23 158 -22 390 0 226 3 284 22 390 87 507
287 914 618 1259 198 207 411 365 649 481 219 107 440 175 646 199 52 6 108
13 124 15 62 9 384 -4 480 -19z"/>
<path d="M39025 15043 c-178 -38 -313 -112 -446 -243 -143 -142 -221 -289
-254 -475 -21 -119 -21 -1010 -1 -1125 39 -216 159 -421 326 -557 82 -67 242
-147 345 -174 103 -27 306 -30 411 -6 235 52 442 198 567 399 57 91 90 171
120 286 21 84 22 103 22 607 0 565 -2 585 -61 742 -106 283 -370 498 -678 552
-84 15 -268 12 -351 -6z"/>
<path d="M23735 11724 c-395 -41 -654 -94 -970 -200 -1409 -472 -2471 -1742
-2725 -3257 -47 -283 -55 -388 -54 -717 0 -329 15 -488 70 -773 161 -837 566
-1602 1165 -2197 659 -655 1489 -1052 2421 -1157 186 -21 654 -23 858 -4 921
85 1655 369 2308 894 317 255 410 382 442 608 29 200 -46 449 -190 630 -93
117 -195 180 -365 225 -109 29 -399 27 -515 -4 -118 -32 -272 -109 -350 -176
-261 -224 -634 -374 -1115 -448 -167 -25 -536 -36 -696 -19 -473 49 -980 251
-1344 536 -93 73 -290 270 -370 370 -158 197 -300 490 -380 781 -19 70 -35
131 -35 136 0 4 1192 8 2649 8 1762 0 2683 3 2750 10 131 14 252 49 365 108
153 78 297 238 350 389 8 23 25 88 37 145 19 90 21 122 16 253 -14 347 -89
757 -204 1110 -434 1335 -1475 2311 -2817 2640 -336 82 -537 106 -941 110
-176 1 -338 1 -360 -1z m472 -1599 c680 -89 1280 -378 1738 -839 269 -270 458
-572 550 -873 l6 -23 -2349 0 -2350 0 10 43 c41 184 157 446 286 642 174 267
396 488 667 668 278 184 616 312 970 367 222 34 303 37 472 15z"/>
<path d="M39092 11710 c-374 -53 -657 -304 -754 -670 l-23 -85 0 -3400 c0
-3265 1 -3403 18 -3465 79 -280 239 -477 480 -595 144 -70 225 -88 397 -88
212 -1 353 40 517 149 185 123 322 327 370 554 17 81 18 239 18 3440 0 3569 2
3409 -47 3560 -81 251 -272 455 -512 545 -136 51 -329 74 -464 55z"/>
<path d="M8118 2943 c6 -2 18 -2 25 0 6 3 1 5 -13 5 -14 0 -19 -2 -12 -5z"/>
<path d="M26819 1608 c-13 -13 -50 -64 -82 -115 -42 -67 -58 -100 -55 -120 3
-26 7 -28 52 -31 27 -2 60 -1 73 3 25 6 187 155 204 188 16 29 0 58 -44 78
-59 26 -118 25 -148 -3z"/>
<path d="M21224 1564 c-49 -24 -54 -48 -54 -239 l0 -174 -32 19 c-18 10 -60
26 -93 34 -206 54 -409 -43 -502 -241 -31 -64 -37 -90 -41 -161 -8 -156 36
-270 144 -371 80 -76 148 -103 266 -109 93 -4 176 13 236 50 26 16 32 17 32 5
0 -27 50 -57 95 -57 32 0 48 6 69 26 l26 27 0 569 c0 371 -4 576 -10 589 -12
22 -61 49 -87 49 -10 0 -32 -7 -49 -16z m-196 -573 c185 -94 186 -350 3 -443
-68 -35 -119 -36 -187 -4 -185 86 -188 349 -4 447 48 25 139 25 188 0z"/>
<path d="M21687 1564 c-34 -18 -47 -50 -47 -114 0 -40 5 -56 28 -80 22 -26 35
-31 71 -32 38 0 49 4 73 31 49 54 35 166 -23 197 -35 18 -66 17 -102 -2z"/>
<path d="M28650 1568 c-50 -26 -60 -67 -60 -247 0 -152 -1 -163 -17 -155 -10
4 -47 18 -83 30 -275 98 -570 -127 -570 -434 0 -166 106 -333 257 -405 64 -30
74 -32 183 -32 109 0 119 2 178 31 34 17 62 27 62 22 0 -5 11 -20 25 -33 34
-35 102 -35 142 -1 l28 24 0 576 0 576 -26 25 c-30 30 -84 41 -119 23z m-207
-571 c89 -38 147 -129 147 -232 0 -76 -24 -128 -82 -182 -87 -80 -194 -83
-291 -9 -102 78 -117 254 -31 355 63 73 174 102 257 68z"/>
<path d="M34385 1571 c-11 -5 -29 -19 -40 -31 -18 -20 -20 -39 -23 -205 l-3
-184 -32 19 c-88 52 -248 63 -347 24 -168 -66 -277 -216 -288 -399 -12 -213
110 -397 306 -460 41 -13 77 -16 150 -13 82 3 106 8 160 34 34 17 62 27 62 22
0 -5 11 -20 25 -33 18 -19 35 -25 67 -25 55 0 84 21 98 68 13 49 14 1064 0
1113 -6 20 -19 44 -29 53 -22 20 -78 29 -106 17z m-211 -575 c51 -21 111 -87
130 -141 34 -103 15 -186 -60 -262 -81 -82 -177 -95 -272 -36 -96 59 -139 170
-108 277 19 64 69 126 125 156 44 23 137 26 185 6z"/>
<path d="M36234 1571 c-12 -5 -31 -22 -43 -37 l-21 -27 2 -570 3 -569 28 -24
c27 -23 33 -24 204 -24 200 0 258 11 368 68 193 102 320 301 332 522 16 304
-169 564 -460 647 -61 17 -380 28 -413 14z m351 -216 c178 -46 304 -199 313
-380 14 -264 -181 -455 -465 -455 l-53 0 0 425 0 425 73 0 c40 0 100 -7 132
-15z"/>
<path d="M13709 1531 c-21 -21 -29 -39 -29 -64 0 -22 79 -223 221 -563 121
-291 227 -539 235 -551 17 -27 83 -47 116 -34 35 13 54 39 86 116 291 689 422
1007 422 1024 0 79 -85 125 -159 87 -24 -13 -50 -69 -201 -428 -95 -227 -175
-416 -179 -420 -3 -4 -82 176 -176 400 -113 271 -179 416 -196 435 -39 39 -99
38 -140 -2z"/>
<path d="M15070 1204 c-210 -57 -349 -285 -310 -514 25 -147 122 -279 247
-338 53 -24 69 -27 173 -27 109 0 119 2 178 31 40 20 62 26 62 18 0 -25 51
-54 95 -54 36 0 48 5 69 31 l26 31 0 378 c0 273 -3 386 -12 405 -13 29 -55 55
-87 55 -22 0 -71 -20 -71 -29 0 -3 -7 -14 -15 -25 -14 -18 -15 -18 -47 2 -82
50 -203 64 -308 36z m165 -195 c169 -42 230 -276 110 -417 -69 -80 -201 -97
-288 -36 -127 88 -135 305 -15 408 58 50 118 64 193 45z"/>
<path d="M15871 1194 l-31 -26 0 -399 0 -400 25 -24 c18 -19 35 -25 65 -25
102 0 110 25 110 325 0 259 4 281 58 327 66 55 142 59 214 12 70 -45 72 -57
78 -352 l5 -264 28 -24 c40 -34 105 -33 138 2 l24 26 0 276 c0 266 -1 279 -23
334 -33 81 -108 160 -190 200 -60 30 -75 33 -157 33 -72 0 -100 -4 -139 -22
l-48 -23 -30 25 c-39 33 -87 33 -127 -1z"/>
<path d="M17106 1209 c-112 -27 -234 -129 -287 -243 -89 -190 -50 -397 101
-540 94 -89 152 -110 290 -111 93 0 112 3 162 27 l57 26 -10 -26 c-42 -110
-187 -172 -296 -127 -85 36 -151 5 -160 -75 -7 -60 19 -92 95 -120 48 -18 74
-21 162 -18 93 3 113 7 170 34 123 58 214 177 240 313 6 30 10 214 10 423 0
405 -1 414 -59 438 -44 18 -97 5 -122 -29 l-21 -29 -32 18 c-72 43 -208 60
-300 39z m211 -225 c53 -31 98 -97 114 -168 36 -163 -96 -323 -249 -302 -149
20 -237 173 -192 331 17 59 95 144 150 162 51 17 125 8 177 -23z"/>
<path d="M17928 1191 l-33 -29 -3 -234 c-3 -256 5 -333 44 -410 34 -67 103
-134 172 -166 81 -38 212 -43 295 -12 112 42 197 134 231 249 22 76 23 538 1
580 -31 62 -130 66 -165 8 -18 -29 -20 -52 -20 -274 0 -256 -3 -279 -48 -326
-39 -42 -75 -57 -132 -57 -79 0 -133 37 -165 112 -12 30 -15 84 -15 283 l0
247 -29 29 c-40 40 -89 40 -133 0z"/>
<path d="M19146 1209 c-114 -27 -233 -126 -285 -238 -106 -231 -17 -508 198
-614 62 -30 71 -32 181 -32 109 0 119 2 178 31 34 17 62 27 62 22 0 -5 11 -20
25 -33 18 -19 35 -25 69 -25 37 0 48 5 70 31 l26 31 0 384 c0 245 -4 392 -10
405 -13 24 -61 49 -96 49 -16 0 -39 -13 -60 -34 l-35 -35 -32 19 c-77 44 -198
61 -291 39z m165 -204 c131 -47 197 -217 135 -350 -44 -95 -122 -141 -227
-133 -119 9 -200 107 -200 241 0 178 142 295 292 242z"/>
<path d="M19975 1211 c-11 -5 -29 -19 -40 -31 -19 -21 -20 -38 -23 -384 -2
-198 0 -376 3 -395 9 -50 46 -81 95 -81 97 0 110 31 110 271 l0 181 35 67 c65
124 134 181 219 181 54 0 96 43 96 99 0 54 -32 90 -86 98 -53 7 -157 -20 -217
-57 l-48 -30 -8 23 c-19 49 -88 79 -136 58z"/>
<path d="M21688 1204 c-15 -8 -32 -23 -38 -34 -15 -28 -14 -775 2 -803 18 -35
40 -46 90 -47 40 0 50 4 72 31 l26 31 0 379 c0 420 -1 427 -61 448 -41 14 -58
13 -91 -5z"/>
<path d="M22277 1210 c-191 -49 -327 -230 -327 -439 0 -189 90 -340 249 -418
51 -26 66 -28 171 -28 104 0 120 3 174 27 l58 28 28 -30 c38 -40 108 -43 145
-5 l25 24 0 396 0 397 -29 29 c-42 42 -93 40 -135 -4 l-31 -34 -63 30 c-50 23
-80 30 -145 33 -45 2 -99 -1 -120 -6z m166 -204 c164 -59 216 -295 91 -420
-92 -92 -241 -87 -325 13 -41 47 -59 98 -59 168 0 171 147 291 293 239z"/>
<path d="M23710 1204 c-271 -73 -402 -395 -268 -658 27 -52 110 -140 162 -169
81 -47 139 -60 255 -55 91 4 115 9 171 35 89 41 140 90 140 135 0 89 -76 113
-176 56 -45 -25 -71 -32 -128 -35 -65 -4 -76 -2 -136 29 -54 27 -70 42 -97 88
-18 30 -33 58 -33 62 0 4 133 8 295 8 194 0 302 4 318 11 48 22 58 82 32 184
-62 235 -299 372 -535 309z m187 -179 c60 -18 133 -71 163 -120 12 -20 20 -38
18 -41 -3 -2 -113 -3 -246 -2 l-241 3 17 35 c25 52 85 105 139 123 61 20 87
21 150 2z"/>
<path d="M24469 1191 l-29 -29 0 -387 c0 -460 -1 -455 100 -455 27 0 48 8 67
24 l28 24 5 264 c5 242 7 266 26 298 24 41 74 77 119 86 42 8 107 -11 143 -41
58 -49 62 -70 62 -329 0 -300 9 -326 108 -326 33 0 45 6 67 31 l26 32 -3 276
-3 276 -31 65 c-39 82 -98 141 -182 182 -60 30 -75 33 -157 33 -72 0 -100 -5
-139 -22 l-48 -23 -30 25 c-42 35 -91 34 -129 -4z"/>
<path d="M26027 1209 c-209 -49 -303 -267 -174 -406 54 -58 108 -85 242 -117
133 -33 177 -57 173 -95 -2 -19 -14 -32 -48 -49 -79 -39 -172 -26 -268 40 -65
45 -113 45 -153 0 -33 -37 -38 -84 -13 -121 25 -35 127 -97 201 -122 94 -31
234 -25 316 15 152 73 212 225 141 357 -47 85 -113 123 -297 170 -103 26 -157
49 -157 69 0 15 32 42 67 56 54 23 96 17 179 -26 90 -47 131 -50 171 -16 37
32 40 102 6 138 -83 88 -258 137 -386 107z"/>
<path d="M26588 1204 c-15 -8 -32 -23 -38 -34 -6 -12 -10 -160 -10 -404 l0
-384 26 -31 c22 -27 32 -31 74 -31 42 0 52 4 74 31 l26 31 0 378 c0 273 -3
386 -12 405 -22 50 -88 68 -140 39z"/>
<path d="M27070 1207 c-48 -24 -50 -36 -50 -444 l0 -381 26 -31 c22 -27 33
-31 73 -31 38 0 52 5 72 26 24 25 24 27 29 288 l5 263 27 40 c29 44 96 83 141
83 36 0 96 -25 125 -53 54 -50 57 -63 62 -345 5 -262 5 -264 29 -283 36 -30
106 -26 136 7 l25 27 0 267 c0 295 -4 323 -61 412 -93 145 -300 207 -457 138
-29 -13 -48 -17 -50 -10 -5 15 -57 40 -84 40 -13 0 -34 -6 -48 -13z"/>
<path d="M29111 1206 c-49 -27 -50 -35 -51 -443 l0 -381 26 -31 c22 -27 32
-31 74 -31 42 0 52 4 74 31 26 30 26 31 26 218 l0 187 34 71 c57 118 141 192
219 193 111 1 147 148 47 190 -61 25 -216 -15 -276 -71 l-21 -20 -6 31 c-12
55 -92 86 -146 56z"/>
<path d="M29996 1210 c-112 -29 -237 -134 -289 -244 -150 -317 88 -681 426
-653 165 14 312 137 367 306 19 61 22 86 18 171 -4 90 -9 107 -42 175 -77 156
-204 244 -361 251 -44 2 -97 -1 -119 -6z m201 -225 c83 -42 123 -114 123 -221
0 -150 -91 -246 -231 -245 -131 0 -220 94 -221 234 -1 80 14 133 52 178 66 80
180 102 277 54z"/>
<path d="M30774 1210 c-54 -21 -54 -24 -54 -441 l0 -387 26 -31 c22 -26 33
-31 69 -31 32 0 52 7 72 24 l28 24 5 264 c5 253 6 264 28 300 33 53 85 82 147
82 61 0 105 -22 142 -71 l28 -36 5 -261 c5 -270 9 -294 50 -316 36 -19 99 -12
125 15 l25 24 0 238 c0 135 5 254 11 276 23 83 118 147 196 132 53 -9 98 -39
125 -83 22 -36 23 -47 28 -299 5 -260 5 -262 29 -287 20 -21 34 -26 72 -26 41
0 51 4 74 32 l26 31 -3 276 -3 276 -28 60 c-37 79 -114 156 -191 192 -53 24
-73 28 -156 28 -87 0 -101 -3 -161 -32 -35 -18 -75 -43 -88 -57 l-24 -25 -36
31 c-19 17 -60 43 -91 57 -47 22 -69 26 -150 26 -77 0 -104 -5 -145 -23 -31
-14 -51 -19 -53 -12 -5 15 -58 40 -84 39 -13 0 -33 -4 -44 -9z"/>
<path d="M32580 1204 c-145 -39 -265 -160 -305 -308 -27 -100 -18 -233 23
-320 77 -164 221 -256 401 -256 130 0 212 27 299 97 36 29 42 40 42 72 0 93
-74 117 -178 59 -51 -30 -65 -33 -137 -33 -70 0 -87 4 -133 29 -52 29 -87 67
-110 119 -7 15 -12 30 -12 32 0 3 133 5 295 5 194 0 302 4 318 11 48 22 58 82
32 184 -62 235 -299 372 -535 309z m182 -178 c60 -18 132 -68 163 -114 14 -20
25 -40 25 -44 0 -5 -110 -8 -244 -8 l-245 0 11 32 c17 48 92 115 146 132 60
19 88 19 144 2z"/>
<path d="M35030 1206 c-75 -20 -141 -58 -195 -111 -223 -224 -160 -604 123
-738 64 -31 72 -32 192 -32 119 0 128 1 190 31 141 66 182 141 115 207 -25 26
-94 22 -134 -7 -68 -51 -198 -59 -277 -18 -50 26 -99 77 -119 125 l-15 37 305
0 306 0 24 25 c20 19 25 34 25 72 -2 275 -274 482 -540 409z m213 -194 c67
-30 147 -110 147 -147 0 -3 -108 -5 -240 -5 -163 0 -240 3 -240 11 0 18 21 53
54 87 75 80 176 100 279 54z"/>
<path d="M37620 1206 c-104 -30 -190 -95 -250 -188 -54 -83 -73 -164 -68 -284
3 -86 8 -108 36 -167 42 -91 129 -177 219 -220 62 -28 77 -31 168 -31 125 0
190 23 271 96 98 90 144 178 158 304 22 186 -82 377 -249 460 -63 31 -85 37
-157 40 -50 2 -101 -2 -128 -10z m207 -217 c55 -27 100 -81 118 -143 19 -63
19 -99 0 -164 -31 -102 -110 -162 -215 -162 -108 0 -175 44 -210 137 -33 89
-21 201 29 271 52 74 189 104 278 61z"/>
<path d="M39771 1207 c-50 -29 -50 -36 -51 -444 l0 -381 26 -31 c22 -26 33
-31 69 -31 32 0 52 7 72 24 l28 24 5 264 c5 253 6 264 28 300 27 44 72 74 125
83 78 15 173 -49 196 -132 6 -22 11 -140 11 -274 l0 -236 25 -27 c35 -37 105
-37 140 0 l25 27 0 267 c0 297 -5 332 -63 417 -75 108 -207 171 -338 160 -38
-3 -88 -15 -113 -25 -43 -20 -44 -20 -63 0 -25 25 -90 33 -122 15z"/>
<path d="M38292 1195 c-44 -19 -68 -74 -52 -119 6 -17 77 -188 157 -380 97
-230 154 -353 167 -361 39 -24 79 -26 112 -6 25 15 41 44 94 175 35 86 67 153
71 149 4 -5 35 -73 69 -153 33 -80 68 -152 76 -161 22 -24 73 -29 111 -12 35
16 31 8 227 472 119 282 131 325 101 368 -8 12 -31 27 -50 33 -28 9 -40 8 -69
-5 -32 -15 -41 -33 -143 -265 -59 -137 -111 -246 -115 -242 -3 4 -34 74 -69
155 -55 132 -66 151 -94 164 -39 19 -94 11 -118 -15 -9 -10 -41 -77 -71 -150
-30 -72 -59 -139 -64 -147 -6 -12 -36 47 -112 222 -57 131 -113 248 -124 259
-28 29 -64 36 -104 19z"/>
<path d="M5848 903 c7 -3 16 -2 19 1 4 3 -2 6 -13 5 -11 0 -14 -3 -6 -6z"/>
<path d="M5898 893 c7 -3 16 -2 19 1 4 3 -2 6 -13 5 -11 0 -14 -3 -6 -6z"/>
</g>
</svg>
